<svg version="1.1" viewBox="0 0 7087 3375" style="enable-background:new 0 0 7087 3375;">
<style type="text/css">
	.b-red{fill:#DC3250;}
	.b-orange{fill:#FAD296;}
	.b-white{fill:#FAFAE6;}
</style>
<g class="background">
	<path class="b-red" d="M175.4,1697.3c-1.8-26.4,0.2-57,4.6-87.4c9.2-63.5,26-125,50.5-184.4c24.8-60.1,56.5-116.2,93.6-169.3
		c37-53,76.3-104.3,122.9-149.6c25.3-24.6,49.4-50.5,75.4-74.3c29-26.5,59.2-51.6,89.5-76.7c50.8-42.2,104.9-80,159.8-116.4
		c61.1-40.5,124.3-77.5,189.1-111.8c24.7-13.1,49.2-26.7,74-39.6c15.9-8.3,32.2-15.9,48.4-23.6c43.9-20.9,88-41.1,132.4-60.8
		c39.5-17.6,79.2-34.7,119.3-50.6c68.7-27.3,137.7-53.8,208.2-76.1c54.6-17.3,109-34.8,163.8-51.6c40.7-12.5,81.7-24.3,122.8-35.5
		c25.6-7,51.8-11.9,77.6-18.1c33-7.9,65.8-16.5,98.8-24.2c51.2-11.9,102.5-23.8,154-34.5c48.8-10.2,97.9-19.6,147-28.2
		c58.3-10.3,116.8-19.9,175.4-29c46.7-7.2,93.5-13.4,140.4-19.7c36.9-5,73.9-10,110.9-14.1c47-5.2,94-9.7,141.1-14.2
		c37.8-3.6,75.6-6.9,113.4-10c29.2-2.4,58.5-4.3,87.7-6.4c30.5-2.2,61-4.5,91.6-6.5c20.6-1.3,41.2-2.4,61.8-3.2
		c47.2-2,94.4-4.1,141.7-5.4c37.3-1,74.6-0.7,111.8-1.3c33.3-0.5,66.6-2.1,99.9-2.2c41.3-0.2,82.7-0.9,123.9,1.1
		c51.3,2.5,102.6,1.6,153.8,3.2c30.6,1,61.1,3.5,91.7,5.3c8.6,0.5,17.3,0.7,26,1.2c39.2,2.4,78.4,4.9,117.6,7.4
		c27.9,1.7,55.8,3.2,83.6,5.3c24.5,1.8,49,4.1,73.6,6.3c31.2,2.9,62.3,5.8,93.5,9c39.7,4.1,79.5,8.3,119.1,13
		c40.3,4.8,80.6,10.4,120.9,15.5c25.1,3.2,50.3,5.4,75.3,9.2c32.2,4.9,64.4,10.7,96.5,16.6c38,6.9,75.7,15.5,113.8,21.1
		c62.7,9.1,124.1,24.6,186,37.3c48.2,9.9,95.9,22.3,143.6,34.5c56.7,14.5,113.3,29.9,169.8,45.3c34.7,9.4,69.3,19.1,103.7,29.7
		c31.8,9.8,63.3,20.8,94.9,31.3c26.5,8.8,52.7,18.2,78.7,28.3c59.6,23.1,119.6,44.9,179.1,68.2c26.6,10.4,52.4,22.9,78.3,35.1
		c50,23.6,100,47.2,149.5,71.7c29.2,14.5,57.9,30.1,86.2,46.3c41.6,23.8,83.1,47.9,123.8,73.2c50.9,31.7,100.9,65,148,102.1
		c36.1,28.4,70.8,58.6,105.4,88.9c62.4,54.5,118.5,115.1,168.7,180.9c29.9,39.2,56.9,80.5,80.2,124.1c27.5,51.3,50,104.5,65.4,160.6
		c7.1,25.7,12.8,51.6,16.8,78c6.2,40.9,10.5,82,9.1,123.4c-1.8,54-8,107.5-21.4,160.1c-14.9,58.4-35.9,114.3-63.5,167.8
		c-29.7,57.6-65.4,111.3-105.3,162.4c-29.6,37.8-61.2,73.9-94.9,108.1c-2.3,2.4-4.4,5-6.7,7.4c-11.6,12.8-23.1,25.4-36.6,36.4
		c-20.7,16.8-39.8,35.4-59.7,53.2c-29.2,26.3-59.7,51-91.3,74.4c-43.9,32.5-88.5,64-134.6,93.3c-53.4,34-107.2,67.3-163.1,96.9
		c-47.7,25.2-95.6,49.8-144.4,72.8s-98,45-147.6,66.2c-69.9,29.8-141.5,55.1-212.3,82.4c-63.4,24.5-128.1,45.1-193,65.3
		c-57.8,18-116.1,34.5-174.4,51c-31.4,8.9-63.2,16.2-94.9,24.1c-26.5,6.6-53.3,12.1-79.4,20c-22.3,6.7-45.4,9.5-67.8,15.5
		c-22.5,6-45.1,11.6-67.9,16.3c-42.4,8.8-84.9,16.9-127.3,25.3c-10.5,2.1-20.8,4.7-31.3,6.6c-46.5,8.3-92.9,17.2-139.6,24.4
		c-38.1,5.9-75.9,14-114.5,17.3c-17.2,1.5-34.2,5.6-51.3,8c-18.4,2.7-36.9,4.7-55.4,7.2c-16.5,2.3-32.8,5.1-49.3,7.2
		c-29.7,3.8-59.4,7.6-89.1,10.6c-37.7,3.8-75.6,6.2-113.3,10.5c-49,5.6-98,9.6-147.2,12.5c-36.5,2.1-73.1,4.7-109.6,7.4
		c-24.5,1.8-49,4.3-73.6,6.3c-5.9,0.5-12-0.2-17.9,0.1c-41.9,1.8-83.8,3.7-125.7,5.5c-2.7,0.1-5.3,0.4-8,0.5
		c-73.9,1-147.9,2.2-221.8,3c-33.3,0.3-66.7,1.4-99.9-0.9c-46.6-3.2-93.2-1-139.7-2.6c-23.3-0.8-46.5-2.4-69.8-3.5
		c-13.3-0.6-26.7-0.6-39.9-1.4c-33.9-2-67.8-4.4-101.6-6.5c-33.9-2.1-67.8-3.5-101.7-6c-37.2-2.8-74.3-6.6-111.4-10.1
		c-46.4-4.4-92.8-8.6-139.2-13.7c-57.5-6.4-115.1-12.8-172.3-22.3c-28.9-4.8-58-7.9-87-12.5c-51.9-8.3-103.8-17.1-155.7-25.7
		c-21.7-3.6-43.4-6.8-65-10.8c-12.4-2.3-24.4-6.2-36.8-8.7c-31.3-6.4-62.7-12.1-94-18.6c-16.3-3.4-32.4-7.8-48.5-11.7
		c-55.7-13.5-111.3-26.8-167-40.3c-11-2.7-21.9-5.6-32.8-8.6c-53.2-14.8-106.7-28.8-159.5-44.8c-57.9-17.6-115.4-36.8-172.9-55.8
		c-62-20.5-122.6-44.4-183.3-68.4c-30.9-12.3-61.5-25.6-92-38.9c-40.8-17.9-82-35.1-122.1-54.7c-62.8-30.8-125-62.6-185.4-97.9
		c-42-24.6-83.6-49.8-123.9-76.9c-46.4-31.2-92-63.5-135.4-98.9c-27.9-22.7-55.8-45.3-82.1-69.9c-24.3-22.8-49.4-44.9-72.1-69.2
		c-24.5-26.2-47.2-54.2-69.6-82.3c-25.3-31.8-48.9-65-69.8-99.9c-14.4-24-27.7-48.6-40.4-73.5c-14.2-27.9-26.2-56.8-37.3-86.1
		c-18.1-48.3-30-98-37.4-148.9C175.8,1768.3,175,1734.9,175.4,1697.3z"/>

	<path class="b-orange" d="M3435.6,3060.7c-77.9-0.6-143.9-0.5-209.8-1.8c-35.2-0.7-70.4-4-105.6-6c-6-0.3-12-0.4-18-0.5
		c-38.6-0.5-77.1-2.8-115.5-7.6c-0.7-0.1-1.3-0.2-2-0.2c-26.6-1.6-53.1-2.8-79.7-4.7c-27.2-1.9-54.4-4.4-81.6-6.8
		c-17.9-1.6-35.8-2.9-53.6-5.3c-39.5-5.1-79.4-7.3-118.7-14.7c-14.3-2.7-29.1-3-43.6-4.8c-21.8-2.8-43.5-6-65.2-9
		c-29-4-58-7.8-86.9-12.2c-32.2-4.9-64.4-9.9-96.5-15.7c-39.2-7.1-78.4-15-117.5-22.8c-55.4-11.1-110.9-22.1-165.6-36.5
		c-33.4-8.8-67.6-14.9-101-23.9c-56.6-15.1-112.8-31.5-169.2-47.2c-35.9-10-71.6-20.7-106.9-32.7c-35.9-12.2-72.4-23.1-107.9-36.5
		c-67.3-25.3-135.2-49.1-201.2-77.6c-13.4-5.8-26.7-11.9-40.1-17.9c-15.8-7.1-31.8-13.8-47.4-21.3c-18.6-8.9-37-18.2-55.5-27.4
		c-26.8-13.4-53.9-26.4-80.3-40.5c-38.2-20.4-75.6-42.2-112.1-65.5c-12.3-7.9-25.6-14.3-37.7-22.6c-35.7-24.5-70.7-49.9-106.5-74.2
		c-34.2-23.3-65.8-49.9-97.4-76.4c-24.4-20.5-49-41.1-69.4-65.9c-1.3-1.5-2.6-3.2-4.2-4.3c-17.4-12.6-31-29.1-44.9-45.3
		c-24.2-28.3-49.3-56-69.9-87.2c-17.6-26.6-36.3-52.7-52.6-80.1c-24.2-40.6-44.8-83.1-60.8-127.8c-12-33.3-22.5-66.9-29.4-101.6
		c-11.5-57.7-16.6-116-13.1-174.8c4.5-75.1,22.8-147.1,49.8-217.1c18.7-48.7,43.8-94.1,72.1-137.9c19.2-29.6,39.1-58.7,61.1-86.4
		c42.8-53.8,91.1-102.4,141-149.6c46.6-44,97.5-82.5,148.9-120.6c52.5-38.8,106.9-74.8,163-108.3c36-21.5,72.3-42.4,109.9-61.2
		c22-11,42.7-24.5,64.7-35.5c33.3-16.7,67.2-32.5,101-48.2c24.2-11.2,48.5-22.1,73.1-32.3c33.2-13.8,66.8-26.7,100.2-40
		c22.2-8.8,44.4-17.9,66.8-26.4c16.8-6.4,33.7-12.5,50.7-18.3c52.9-18,105.8-36.3,158.9-53.5c34.2-11.1,68.8-21,103.3-30.8
		c23.6-6.7,47.5-12.6,71.4-18.7c40-10.2,79.9-20.7,120-30.3c27.2-6.5,54.6-11.8,81.9-17.8c20.1-4.4,40.1-9.8,60.3-13.6
		c62.7-12,125.5-23.6,188.3-35.1c33.4-6.1,66.8-11.9,100.3-17.3c24.9-4,50-7.1,75.1-10.7c19.8-2.9,39.4-6.2,59.2-8.9
		c18.4-2.5,37-4.5,55.4-6.8c9.9-1.2,19.7-2.8,29.6-3.9c25.8-2.9,51.6-5.6,77.3-8.5c31.7-3.6,63.3-8.4,95.1-10.6
		c39.1-2.7,77.8-10.5,117.3-9.7c20.5,0.4,41.1-3.2,61.6-5c5.3-0.5,10.6-1.3,15.9-1.6c19.2-1.3,38.5-2.9,57.8-3.7
		c18.6-0.8,37.3-1.5,56-1.3c39.4,0.3,78.5-3,117.7-5.9c3.9-0.3,7.9,0.6,11.9,0.5c25.8-0.3,51.7-0.5,77.5-1.1
		c17.3-0.4,34.6-1.6,51.9-1.7c41.3-0.2,82.6-0.2,124,0c46.7,0.3,93.3,0.6,140,1.6c34.6,0.7,69.2,2.5,103.8,3.9
		c27.9,1.1,55.9,2.1,83.8,3.7c29.2,1.7,58.4,4.2,87.6,6.3c4,0.3,8,0.3,12,0.4c30,0.5,59.8,3.5,89.6,7c21.1,2.5,42.4,3.6,63.6,5.9
		c31.7,3.4,63.7,3.9,95.1,10.5c12.3,2.6,25.1,3.1,37.6,4.6c35,4.1,70,8,105,12.6c31,4,61.9,8.6,92.8,13.4
		c46.7,7.2,93.3,14.6,139.9,22.2c15.7,2.6,31.4,6,47.1,8.9c30.1,5.5,60.3,10.7,90.3,16.4c9.8,1.9,19.3,5.2,29,7.3
		c32.5,7,65.4,12.7,97.6,21c49.6,12.7,100.1,21.9,149.2,36.9c29.9,9.1,60.6,15.5,90.6,24.3c38.3,11.2,76.3,23.6,114.5,35.4
		c19.7,6.1,39.6,11.6,59.1,18.3c29.6,10.2,59.1,20.7,88.3,31.9c46.6,17.9,93.2,35.8,139.3,54.9c36.2,15.1,72.5,30.1,107.6,47.9
		c22.5,11.4,46.2,20.5,69.2,31c13.3,6.1,26.4,12.7,39.4,19.6c52.9,28.1,106.1,55.7,157.1,87.4c18.7,11.6,38.1,21.9,56.5,33.9
		c21.8,14.1,42.6,29.8,64.2,44.1c39,25.7,75.1,55.2,111.4,84.4c20.2,16.2,38.7,34.6,57.9,52.1c6.4,5.8,12.3,12.2,18.8,17.9
		c39.6,34.9,74.1,74.6,108.2,114.6c6.9,8.1,12.4,17.3,18.7,25.9c24.6,33.2,47.3,67.7,68.4,103.2c17,28.6,31.2,58.9,42.1,90.5
		c9.5,27.7,19.9,55.2,27.8,83.4c9.6,34.6,15.4,70,19.4,105.9c4.2,37.9,4.3,75.8,2.4,113.7c-1.1,21.2-5.5,42.2-8.6,63.2
		c-7.3,49-22.7,95.8-39.6,142.1c-8.2,22.5-18.1,44.6-29.6,65.5c-20.6,37.3-40,75.3-64.8,110.2c-16.2,22.8-33.2,44.9-50.9,66.6
		c-21.1,25.9-43.4,50.4-66.4,74.5c-8.3,8.7-15.9,17.9-24.6,26.2c-18.3,17.4-36.7,34.8-55.8,51.4c-22,19.3-44.3,38.3-67.2,56.5
		c-25,19.9-50.8,38.8-76.4,57.9c-20.3,15.1-40.9,29.9-61.3,44.8c-2.7,2-5.2,4.3-8.1,5.8c-49.1,25.4-94,58-143,83.6
		c-40.2,21-80.2,42.2-120.7,62.5c-34.5,17.3-68.8,35.3-104.5,49.9c-36.9,15.1-72.2,34.2-110.3,46.7c-22,7.3-43,17.9-64.5,26.7
		c-12.9,5.3-25.9,10.6-39.2,15c-22.1,7.5-44.4,14-66.5,21.4c-22.1,7.5-43.9,15.6-65.8,23.5c-8.2,2.9-16.3,5.8-24.5,8.4
		c-36.2,11.5-72.2,23.3-108.6,34.1c-40.2,11.9-80.2,24.5-121.1,34.1c-48.6,11.4-96.6,25.3-145,37.3c-27.7,6.9-55.9,12.2-83.8,18.4
		c-11.7,2.6-23.3,5.7-34.9,8.3c-30.6,6.6-61.1,13.3-91.8,19.5c-28,5.7-56.2,10.6-84.3,16c-30.7,5.8-61.4,11.9-92.1,17.5
		c-12.4,2.3-25,3.9-37.5,5.6c-32.3,4.4-64.9,7.3-96.9,13.3c-45.2,8.5-90.9,11.9-136.3,18.9c-27.6,4.3-55.3,7.6-83,11.3
		c-2.6,0.4-5.3,0.5-8,0.6c-36.6,1.2-72.8,6.6-109.2,10.9c-2.6,0.3-5.3,0.7-7.9,0.8c-27.9,1.9-55.8,3.5-83.7,5.6
		c-41.8,3.1-83.7,5.7-125.5,8.2c-45.2,2.7-90.3,5.8-135.6,7.4c-44.6,1.6-89.2,2.2-133.8,2.9
		C3509,3059.9,3466.4,3060.3,3435.6,3060.7z"/>

	<path class="b-white" d="M3579.3,392.1c21.3,0,42.7-0.2,64,0.1c17.3,0.2,34.6-1.5,51.7,2.9c4.4,1.1,9.3,0.3,14,0.4
		c28.7,0.2,57.3,0.2,86,0.6c15.9,0.2,31.8,0.6,47.7,2.7c18.4,2.4,37.3,1,55.9,1.3c11.3,0.2,22.6-0.5,33.7,2.8
		c4.3,1.3,9.3,0.7,13.9,0.8c19.9,0.5,39.8,0.5,59.7,3.5c19,2.8,38.6-0.9,57.6,4.3c0.6,0.2,1.3,0.1,2,0.1c25.2,1.5,50.4,2.6,75.6,4.7
		c21.1,1.7,42.2,4.6,63.3,6.9c2,0.2,4,0.5,6,0.5c25.9,1,51.5,4.4,77.2,7.8c17.8,2.3,35.7,2.9,53.5,4.9c15.1,1.7,30.2,4.4,45.3,6.5
		c13.8,1.9,27.7,3.2,41.5,5.2c24.9,3.5,49.9,7.2,74.8,10.9c11.2,1.6,22.3,3.3,33.5,4.9c21,3,42.1,5.6,63,9.1
		c28.8,4.7,57.5,10,86.2,15.2c52.2,9.5,104.3,19.6,156.3,30.4c76.8,16,153,33.9,228.9,53.7c38.6,10.1,77,20.8,115.2,32.1
		c45.9,13.5,91.9,27,137.3,42.1c48,15.9,95.4,33.4,142.9,50.9c33.7,12.4,67.1,25.8,100.3,39.2c23.4,9.5,46.7,19.5,69.7,30
		c35.2,15.9,70.4,31.7,105,48.9c32.2,16,63.7,33.3,95.2,50.7c25.6,14.1,50.7,29.2,76.1,43.8c41.6,23.9,81.2,50.8,120.3,78.6
		c33,23.6,65.2,48.3,96.4,74.2c33.3,27.7,64.9,57.2,95.3,88c34.7,35.1,65.8,73.1,95.2,112.7c31,41.9,57.2,86.7,78.7,134.1
		c20.9,46.1,36.2,94.2,45.8,144.1c9.7,50.1,9.8,100.7,7.1,151.1c-1.7,31.7-8.3,63.1-16.5,94c-14.6,54.3-34.9,106.2-62.1,155.4
		c-22.9,41.4-49.1,80.7-78.4,117.9c-15.7,19.9-31.7,39.4-49.2,57.6c-13.8,14.4-26.4,30.1-40.8,43.8c-24.1,22.9-49.4,44.5-73.8,67
		c-32.3,29.8-67.3,56.4-103,81.9c-33.5,24-67.9,46.9-102.4,69.4c-25.6,16.7-52,32.2-78.3,47.9c-15.4,9.2-31,18.2-46.9,26.5
		c-34.8,18.3-69.5,36.8-104.7,54.1c-29.8,14.7-60.3,28.1-90.6,41.9c-26.1,11.8-52,23.8-78.4,35c-31.9,13.5-63.9,26.4-96.2,39
		c-25.4,9.9-51,19.3-76.8,28.2c-42.7,14.8-85.7,29-128.6,43.4c-49.8,16.7-99.8,33-150.8,45.7c-46.4,11.6-92.2,25.6-138.6,36.9
		c-44.5,10.8-89.3,20.4-133.9,30.5c-18.8,4.3-37.5,8.9-56.3,13.1c-23.9,5.4-47.8,11.1-71.9,15.9c-33.8,6.7-67.8,12.7-101.7,18.8
		c-43.8,7.8-87.5,15.5-131.4,22.7c-22.3,3.7-44.7,6-67,9.3c-23,3.4-45.8,7.6-68.8,10.7c-17.1,2.3-34.4,3.2-51.5,5
		c-13.9,1.5-27.7,3-41.5,5.2c-19.7,3-39.3,6-59.2,7.1c-17.8,1-35.6,4-53.3,6.2c-1.3,0.2-2.6,0.7-3.9,0.8c-20.5,1.6-41.1,3-61.6,4.8
		c-22.5,2-44.9,4.4-67.3,6.6c-2,0.2-3.9,0.8-5.9,0.9c-27.2,1.5-54.4,2.9-81.6,4.2c-11.3,0.5-22.4,1-33.7,2.8
		c-13.7,2.3-27.9,1.2-41.9,1.6c-11.9,0.3-23.8,0.8-35.7,2.6c-14.4,2.2-29.2,1-43.9,1.4c-11.9,0.3-23.9-0.5-35.7,2.7
		c-5.6,1.5-11.9,0.8-17.9,0.8c-48,0.2-96,0.1-144,0.5c-9.2,0.1-18.5,1.9-27.7,2.4c-23.3,1.4-46.5,2.4-69.7-0.7
		c-7.8-1-16.1-2.1-23.7-0.8c-21.2,3.6-42.2,3.7-63.4,0c-5.8-1-11.9-0.8-17.9-0.9c-39.3-0.2-78.7-0.3-118-0.6
		c-7.3-0.1-14.5-1.3-21.8-1.9c-6.6-0.6-13.2-1.2-19.9-1.5c-23.9-1.2-48,1.7-71.7-3.6c-3.8-0.9-8-0.2-12-0.3
		c-15.3-0.4-30.4-0.9-45.7-3.2c-15.7-2.4-31.9-1.1-47.9-1.4c-10-0.2-20,0.8-29.7-2.8c-1.2-0.5-2.6-0.4-4-0.5
		c-22.5-1.5-45.3-1.6-67.5-5c-23.1-3.5-46.4-2-69.4-6.3c-15.6-3-31.7-3.4-47.5-4.8c-17.2-1.6-34.4-2.7-51.6-4.7
		c-15.1-1.8-30.1-5.2-45.2-6.6c-13.9-1.4-27.9-1.7-41.5-4.9c-20.1-4.7-40.9-4.7-61.1-8.3c-25.5-4.5-51.7-3-76.8-10.7
		c-10.6-3.2-22.3-3-33.5-4.5c-9.2-1.3-18.3-3-27.5-4.4c-30.8-4.6-61.7-9-92.1-16c-11.6-2.7-23.2-5.6-35-7.8
		c-15.6-2.9-31.4-5.3-47.1-7.9c-43.3-7-86.2-15.6-128.7-26.3c-9.6-2.4-19.5-4-29.2-6.4c-26.4-6.6-52.7-13.6-79.1-20.2
		c-21.2-5.3-42.7-10-63.8-15.5c-64.9-17.1-130-33.5-193.8-54.6c-27.8-9.1-55.4-18.9-83.3-27.4c-44.6-13.6-87.5-31.6-131.1-47.9
		c-24.4-9.1-48.2-19-71.8-30c-13.8-6.4-28.8-10.2-43-15.9c-17.9-7.2-35.5-15.2-53.2-22.7c-15.3-6.5-30.8-12.6-46-19.2
		c-19.6-8.5-37.8-19.6-55.6-31.3c-7.1-4.7-15-8.6-23-11.6c-23.1-8.7-45-19.9-66.3-32.4c-13.2-7.7-26.8-14.8-40-22.5
		c-22.9-13.4-45.5-27.3-66.5-43.9c-7.1-5.6-16.7-8.1-24.4-13.1c-20.1-12.9-39.9-26.4-59.7-39.8c-7.7-5.2-15.1-10.8-22.8-16.1
		c-9.9-6.7-19.6-13.6-28-22.4c-4.1-4.3-9.3-7.4-14.1-11c-17.9-13.8-36.3-26.9-53.4-41.6c-11.5-9.9-21.3-21.9-31.8-33
		c-6.4-6.8-12.3-14.1-19.2-20.2c-14.4-12.7-30.1-24.2-44-37.4c-12-11.4-22.7-24.3-33.2-37.1c-13.9-16.9-27.2-34.4-40.4-51.8
		c-16.5-21.7-32.2-43.9-44.7-68.3c-11.8-23.1-24.4-45.8-36.4-68.8c-15.1-29-26.5-59.5-34.5-91.3c-5.8-23.2-12.2-46.2-17.5-69.5
		c-2.7-11.6-3.9-23.5-5.3-35.4c-0.4-3.8,1.3-7.8,1.4-11.8c0.4-9.9,1.9-20,0.4-29.7c-4-25.2-3.6-50.3,0-75.4
		c0.7-4.6,1.5-9.3,1.4-13.9c-0.9-22.3,5-43.5,10.4-64.7c8.1-31.6,18.9-62.3,32.1-92.2c8.3-18.9,15.3-38.4,24.8-56.6
		c10.4-20,22.2-39.5,35-58c20-29,41.1-57.2,62.2-85.3c9.6-12.7,20.3-24.5,30.6-36.7c6.4-7.6,12.7-15.4,19.5-22.6
		c7.8-8.2,16-16,24.2-23.7c5.3-5,11.6-9.1,16.5-14.3c20.6-21.9,43.5-41.1,65.8-61.1c3.9-3.5,8.6-6.2,12.8-9.5
		c27-21.5,53.4-43.7,81-64.5c42-31.6,85.6-61,130.7-88c28-16.7,55.9-33.6,84.1-49.8c18.5-10.6,37.4-20.3,56.2-30.4
		c20-10.7,39.8-21.7,60.1-31.7c26.9-13.3,53.9-26.1,81.2-38.5c26.1-11.8,52.4-22.9,78.8-33.9c30.7-12.9,61.3-25.9,92.3-37.9
		c41.6-16.1,83.3-31.8,125.3-46.5c39.5-13.9,79.6-26.3,119.4-39.2c20.2-6.5,40.5-13.1,61-18.9c52.4-14.9,104.8-30.1,157.4-44
		c45.6-12.1,91.4-23.1,137.4-33.9c40.1-9.4,80.3-18,120.6-26.5c33.1-7,66.3-13.5,99.6-19.9c35.2-6.7,70.4-13.4,105.7-19.4
		c28.8-4.9,57.7-8.7,86.6-13.1c32.8-5,65.5-10.5,98.3-15c25.6-3.6,51.4-5.9,77.1-9.1c15.1-1.9,30.1-4.6,45.2-6.7
		c12.5-1.7,25-3.1,37.6-4.3c17.8-1.7,35.7-3,53.6-4.8c19.8-2,39.5-4.3,59.3-6.5c1.3-0.1,2.6-0.6,3.9-0.7c21.2-1.6,42.5-2.2,63.6-4.9
		c27.7-3.4,55.8-2,83.3-7c1.3-0.2,2.6-0.3,4-0.4c27.9-1.5,55.7-3,83.6-4.3c13.9-0.7,27.8-0.8,41.7-2.9c15-2.3,30.6-0.9,45.9-1.3
		c13.9-0.3,27.9,0.8,41.7-3c4.4-1.2,9.3-0.5,13.9-0.6c26.7-0.2,53.3-0.2,80-0.6c18.6-0.3,37.3,1.5,55.7-3c5-1.2,10.6-0.4,16-0.4
		C3520.6,392.1,3550,392.2,3579.3,392.1L3579.3,392.1z"/>
</g>

<g class="star b-red">
	<path d="M5879.7,1717.5c-0.7,10-1.4,20.6-2.4,31.1c-0.3,3.3-1.4,6.5-2.6,9.6c-2.4,5.7-9.8,8.3-15.1,4.9
		c-3.8-2.5-6.9-6.1-10.3-9.3c-11-10.6-21.8-21.4-33-31.8c-18.8-17.4-40.8-29.7-64.5-39c-5.5-2.2-11.2-4.3-16.3-7.4
		c-5.6-3.3-7.3-10.1-3.9-15.7c3.1-5.1,6.7-10,11-14.1c30.2-29.1,41.5-65.7,42-106.4c0.1-9.3-0.4-18.6-0.5-27.9c0-4.3,1.8-8,5.6-9.9
		c4-2,7.9-0.5,11,2.3c2.9,2.6,5.7,5.6,8,8.8c31,41.8,52.4,87.8,62.2,139.1c2.1,11.1,4.5,22.2,6,33.3
		C5878.3,1695.5,5878.7,1706.2,5879.7,1717.5z"/>
	<path d="M5987,1397.2c0,3.3,0.1,4.6,0,5.9c-0.8,8.7-6,13.6-14.6,12.4c-9.2-1.3-18.5-2.8-27.2-5.7
		c-39-12.9-74.7-4-108.9,15.4c-6.3,3.6-12.4,7.8-19,10.8c-7.2,3.4-13.9-2-12.3-9.8c0.9-4.5,2.8-8.8,4.7-13.1
		c13.9-32.1,33.9-60,57-86c20.5-23.1,44.1-42.4,69.9-59c13.3-8.6,28.3-14.6,42.6-21.5c2.9-1.4,6.3-2.2,9.5-2.7
		c6.8-1.1,12,3.2,11.6,10.1c-0.2,4.6-0.8,9.4-2.5,13.6c-16.4,40.7-18.3,82.7-11,125.4C5986.9,1395.1,5987,1397.2,5987,1397.2z"/>
	<path d="M5876,1463.1c65.5-0.2,125.7,19.1,182,51.6c5.2,3,10,6.6,14.7,10.3c4.3,3.4,7.7,7.6,6.7,13.6
		c-1.1,6.1-5.7,8.6-11.1,10c-2.6,0.7-5.1,1.5-7.8,1.9c-39.9,6.2-74.4,23.8-105.9,48.4c-4.2,3.3-8.4,6.6-13.1,9
		c-6.6,3.5-13.5,1.3-17.1-5.1c-1.9-3.5-3.2-7.3-4.5-11.1c-2.4-6.9-4.4-13.9-7-20.8c-12.9-35.4-36.4-61.4-69.8-78.7
		c-6.5-3.3-13.1-6.7-19-10.9c-6.6-4.7-5.3-12.8,2.3-15.4c4.4-1.5,9-2.6,13.6-2.7C5852.1,1462.9,5864,1463.1,5876,1463.1z"/>
	<path d="M5697.5,1170.9c3.7,1.5,7.3,2,9.6,4c5,4.4,9.2,9.5,13.9,14.2c8.4,8.5,16.9,17,25.5,25.2
		c16.7,16,37,25.7,58.4,33.5c6.9,2.5,13.8,5.1,20.1,8.6c7.6,4.2,8.9,11.9,3.3,18.5c-3.9,4.5-8.5,8.5-12.8,12.6
		c-21.1,20.3-37,43.8-42,73.1c-1.9,11.1-2.1,22.4-2.8,33.7c-0.5,8,0,16-1.1,23.9c-1.1,8.3-8.6,11-14.6,5.5
		c-3.4-3.1-6.4-6.7-9.1-10.5c-32.1-46.2-52.1-97-59-153c-2.7-21.9-4.1-43.7-1.2-65.7c0.7-5.2,1.3-10.7,3.3-15.5
		C5690.6,1175.9,5694.5,1173.8,5697.5,1170.9z"/>
	<path d="M5676.8,1469.6c-15.1-1.4-31.7-2.6-48.2-4.6c-46.2-5.6-85.7-27.9-124.9-50.8c-5.1-3-9.7-7.1-14.1-11.2
		c-8.8-8.3-6.9-16.8,4.7-21.1c5.6-2.1,11.4-3.8,17.3-4.7c35.2-5.7,65.6-21.2,92.5-44.3c5.5-4.7,11.5-9.1,17.8-12.9
		c5.9-3.5,12.3-1.5,15.1,4.8c2.7,6,4.6,12.5,6.2,18.9c7.5,30.6,22.4,56.7,46,78c9.5,8.6,20.2,15.1,31.3,21.3c4.6,2.6,9.6,4.7,13.7,8
		c2.2,1.8,4.3,5.7,3.9,8.3c-0.4,2.6-3.6,5.4-6.3,6.8c-2.8,1.5-6.4,1.8-9.7,1.9C5707.6,1468.6,5693,1469,5676.8,1469.6z"/>
</g>

<g class="text b-red">
	<path d="M3807.9,1890.8c-8.2-2-12,2.3-16,5.6c-7.7,6.3-15.1,13.1-22.7,19.5c-10.3,8.6-21.5,15.7-34.3,20
		c-5.6,1.9-11.5,3.4-17.4,4c-29,2.7-47-12.9-49.1-42.2c-0.5-7.3-0.2-14.7-0.9-21.9c-0.6-6-6.1-9-11.9-6.5c-4.9,2.1-9.5,4.9-14.1,7.4
		c-21.5,11.9-42.7,24.6-64.7,35.7c-36.3,18.4-75.5,25.8-115.9,26.1c-21.9,0.1-42.1-5.9-59.8-19.3c-2.7-2-5.3-4.1-8.1-5.8
		c-5.1-3-10.4-2.7-14.9,1c-4.6,3.8-9,7.9-13.1,12.2c-9.7,10.1-19.2,20.4-28.8,30.6c-21.8,23.1-47.7,40.6-76.3,53.8
		c-24.7,11.5-51,15.3-78.1,11.8c-36.3-4.8-63.1-30.3-71-66.4c-3.6-16.5-3.3-33.1-0.9-49.7c1.4-9.9,3.6-19.7,5.3-29.5
		c1-5.9,2.2-11.8,2.6-17.8c0.1-2.2-1.3-5.6-3.1-6.6c-1.7-1-5.4-0.5-7.2,0.8c-4.2,3.2-7.8,7.2-11.7,10.8
		c-15.5,14.6-30.6,29.7-46.6,43.7c-17.2,15.1-37.2,25.9-59.3,32.1c-7.5,2.1-15.8,3.2-23.6,2.5c-22.6-2.3-35.9-16.2-38.5-39.1
		c-2.3-20.3,1.2-40,9.3-58.6c6.1-14,13.7-27.4,20.4-41.1c3.8-7.7,7.7-15.5,10.7-23.6c2.1-5.9-1.1-10.8-7.2-11.9
		c-7.2-1.4-14.5-2.2-21.7-3.3c-19.3-3-37.4-9.4-54.2-19.6c-1.7-1-3.4-2.2-5.1-3.1c-10.7-5.5-16.8-4.3-23.8,5.9
		c-4.2,6-7.3,12.7-11,19c-7.3,12.7-14.4,25.5-21.9,38.1c-21.5,35.8-49.1,66.5-80.2,93.9c-20.6,18.1-43.3,33.1-69.4,42.8
		c-17.3,6.4-35,7.8-53.1,5.2c-25.9-3.8-42.1-19.3-46.1-45.2c-1.5-9.8-2-20-1-29.8c2.2-21.9,7.1-43.4,16.4-63.6
		c8.4-18.1,17.4-36,26.2-53.9c0.6-1.2,1.5-2.3,1.9-3.5c2.1-5.5,6.5-10.9,3-16.9c-3.9-6.7-10.5-3.9-16.2-3.2
		c-12.6,1.4-25.1,3.2-37.7,4.5c-25.6,2.6-50.5-0.6-74.8-9c-20.1-6.9-23.3-4.4-28.2,16.8c-3.7,16.2-8.1,32.3-13.1,48.1
		c-8.4,26.2-21.2,50.4-36.7,72.9c-21.1,30.6-47.7,55.6-80.5,73.4c-20.9,11.4-43.3,16.8-67.4,14.4c-27.1-2.7-47.5-19.2-54.6-45.3
		c-5-18.4-4.3-37-1.3-55.5c4.5-27.7,12.6-54.6,23.5-80.4c11.3-27,23.2-53.9,36.1-80.1c23-46.6,45.7-93.4,70.9-138.8
		c31.7-57.1,64.8-113.4,99-169c26.8-43.7,54.9-86.6,84.4-128.7c31.8-45.3,66-88.8,101-131.5c29.5-36,61.6-69.9,95.3-102.3
		c24.6-23.6,50-45.9,77.2-66.4c27.8-20.9,56.8-39.9,87.6-55.7c27.4-14.1,56.2-24.7,88-22.1c21,1.7,39.2,8.4,50.7,27.2
		c12.2,20,13.8,41.5,7,63.6c-3.2,10.3-12.5,13.9-22.4,8.9c-5.9-3-11.4-6.9-17-10.5c-9.7-6.3-20.2-9.8-31.9-10.1
		c-31.5-0.8-62.5,1.6-92.7,11.8c-17.8,6.1-34.5,14.3-50.2,24.5c-43.9,28.4-83.1,62.2-116.3,102.9c-31.2,38.3-58.6,79.3-86.7,119.8
		c-36.4,52.6-69.4,107.4-101.3,162.8c-40.9,71-78.2,144-115.4,217c-19.6,38.6-38.5,77.5-56.4,117c-20.7,45.6-36.3,93.1-46.8,142.1
		c-1.7,7.8-2.6,15.8-3.5,23.7c-0.4,3.9-0.5,8,0,11.9c2.1,17.7,13.3,24.5,29.6,17.8c11.8-4.9,21.9-12.4,31-21.6
		c22.1-22.2,35.7-49.6,47.5-78c14.8-35.6,19.6-73.3,20.5-111.4c0.4-15.2-1.9-30.6-4.9-45.6c-3.5-17.4,0.7-31.5,13.4-43.5
		c5.3-5,10.6-10.1,16.1-15c2.5-2.2,5.2-4.3,8.1-5.8c11.8-6,23.1-1.5,27.2,10.9c1.9,5.7,3.1,11.6,4.3,17.5
		c6.8,33.7,28.2,55.2,58.6,68.3c15.4,6.6,32,10.3,48.8,8.5c17.8-1.8,35.7-4.5,53.2-8.5c21.1-4.8,38.8-15.9,54.9-31
		c31.3-29.5,66.8-52.9,109.4-63.6c3.9-1,7.6-2.5,11.5-3.5c9.8-2.4,16.5-8.4,20-17.8c11.4-30.9,37.9-37,66-39.2
		c14-1.1,20.4,8.6,16.7,22.4c-0.7,2.6-1.6,5.1-2.7,7.5c-9.8,21.7-12.7,44.7-12.6,68.3c0,11.3,0.1,22.7,0.3,34
		c0.3,14.2,4,27.7,9.9,40.5c8.2,17.8,21.9,28,41.8,29.4c25.9,1.8,48.6-4.6,67.1-24c17.9-18.8,36.5-37,55.1-55.2
		c4.7-4.6,10-8.7,15.5-12.4c24.9-16.7,50.1-33,78.5-43.5c14.3-5.3,28.9-9.9,43.4-14.8c7.6-2.5,15.3-4.7,22.8-7.3
		c7.8-2.7,13.9-7.8,18.4-14.7c4.7-7.3,9.3-14.6,13.7-22.1c31.8-53.9,62.3-108.7,95.7-161.6c34.2-54,69.1-107.7,108.6-158.1
		c23-29.4,44.8-59.7,68-88.9c26.9-33.9,54.9-67,85-98.2c3.2-3.4,6.5-6.7,9.5-10.3c29.2-35.1,64-64.2,100.8-90.6
		c22.1-15.8,46.7-28.2,70.7-41.3c20-11,42.1-16.6,64.4-20.9c16.6-3.2,33.2-2.3,49.5,2c3.8,1,7.7,2.3,11.1,4.2
		c10.9,6.2,15.5,17.5,10.5,29.1c-6.1,14-13,27.7-20.6,41c-6.7,11.8-17.8,15.6-30.9,12.3c-3.9-1-7.5-2.7-11.3-4
		c-23.3-7.8-46.9-8.4-71-3.8c-29.4,5.7-55.4,18.5-79.6,35.7c-25.1,17.9-47,39.3-68.8,60.9c-47.1,46.7-85.2,100.5-121.7,155.6
		c-35.3,53.3-70.8,106.5-105.2,160.5c-23.6,37.1-45.5,75.2-67.7,113.2c-43.1,73.6-83,148.9-120.2,225.7
		c-26.7,55.2-50.4,111.7-69.8,169.9c-8,24.1-15,48.5-13.3,74.3c0.5,7.9,1.8,15.9,4.2,23.4c4.6,14.3,15.6,21.1,30.1,22.3
		c12.8,1.1,25.6-0.5,37.2-5.7c18.2-8.2,35.9-17,51.7-29.9c28.5-23.4,54.4-49,75.6-79.3c8.6-12.3,15-25.2,17.3-39.9
		c8-52,31.5-97.2,61.4-139.5c27.5-39,60.2-73,100.3-99.3c22.6-14.8,46.4-26.3,73.9-27.9c8.6-0.5,17.4-0.1,25.8,1.4
		c18.9,3.4,31.6,18.7,32.3,37.9c0.4,10.1-1.7,20-5.7,29.2c-16.3,37.4-41.8,65.9-79.4,83.4c-23.8,11-48.1,19.5-74.3,22.2
		c-4,0.4-7.9,1.7-11.8,1.9c-14.6,0.9-22.8,9-27.5,22.3c-7.4,20.9-12.1,42.3-13.4,64.3c-0.5,8.5,0.8,17.3,2.7,25.7
		c4.4,20.3,18.7,31.9,39.5,33.3c24,1.6,46.6-4.5,67.8-14.2c37.1-16.9,71.1-39.2,102.6-65.2c19.3-15.9,33.5-35.7,46.8-56.7
		c34.1-53.6,73-103.3,121.7-144.8c29-24.8,61.9-41.3,99.5-48.2c4.6-0.8,9.2-2.3,13.8-2.4c16.6-0.5,26.8-9.7,34.5-23.5
		c10-18.1,20.4-35.9,31.1-53.6c4.5-7.4,9.3-14.8,15.4-20.8c11.8-11.8,26.6-10.1,35.2,4.4c4.3,7.2,7.3,15.9,8.4,24.2
		c2.2,16.8-0.3,33.1-8.5,48.4c-19.4,36.5-38.3,73.2-57.5,109.8c-17.4,33-35.8,65.5-52.5,98.8c-25.3,50.7-55,99-81.9,148.8
		c-17.4,32.2-34.7,64.5-53.2,96.2c-45.1,77-90.9,153.7-136.3,230.5c-15.6,26.4-30.7,53-46.4,79.3c-32.1,53.7-63.6,107.9-101.2,158.2
		c-34,45.4-69.8,89.3-111.6,127.8c-64.6,59.4-138.2,103.7-221.7,131.7c-46.5,15.6-94,23.7-142.7,27.3c-24.7,1.9-49.2,2.2-73.8,0.3
		c-43.1-3.4-83.8-14.8-121-37.5c-31.3-19.1-53.7-46.1-67.9-79.2c-23.3-54-27.6-110.7-19.4-168.6c0.9-6.6,2.6-13.1,4.9-19.3
		c1.5-4.3,4.3-8.3,7.3-11.7c3.8-4.3,9.1-5.4,14.7-3.7c5.7,1.8,9.1,6.2,9,11.9c-0.1,8.6-0.8,17.3-2.3,25.7
		c-6.5,37.9-2.6,74.6,14.6,109c15.6,31.2,40.2,54.4,70.2,71.9c39.2,22.9,82,34.4,126.5,41c43.9,6.5,87.8,6,131.5-0.7
		c50.4-7.7,98.1-23.5,142.5-49.4c42.3-24.7,80.8-54.5,115.8-88.2c23.9-23,45-49.1,66.1-74.8c38.1-46.5,69.8-97.4,98.1-150.5
		c24.1-45.3,48-90.7,71.7-136.2c36.1-69.1,71.9-138.3,108.1-207.4c10.8-20.7,22.4-40.9,33.4-61.5
		C3804,1908.2,3809.2,1901,3807.9,1890.8z M2837.1,1671.4c-2-15.1-3.5-28.3-5.7-41.4c-1.6-10-8.3-13.6-17.5-9.7
		c-10.5,4.5-19.5,11.2-27.7,19.2c-20.6,20-38.7,42.1-55.5,65.3c-23.1,32-40.6,67.2-56.2,103.2c-10.1,23.1-17.6,47.4-15.3,73.5
		c1.6,17.9,9.8,23.7,26.5,17.2c4.9-1.9,9.9-4.3,14-7.5c6.9-5.2,13.5-10.8,19.6-16.9c44-43.7,76.3-95.4,102.2-151.4
		c4.2-9,7.8-18.4,10.6-28C2834.7,1686.8,2835.7,1678.2,2837.1,1671.4z M3753,1855.1c-0.1,8.7,2.7,14.8,6.1,14.6
		c3.7-0.2,7.7-1.6,10.8-3.7c3.8-2.5,6.9-6.2,10.1-9.6c7.3-7.7,14.7-15.4,21.6-23.5c11.2-13.2,22.4-26.3,32.9-40.1
		c12.1-15.9,23.1-32.5,35-48.5c26.4-35.2,49.4-72.6,72-110.3c3.4-5.7,6.3-11.8,8.6-18c2.6-6.9-1.9-13.6-9.3-14.6
		c-2.6-0.4-5.3-0.3-7.9,0.1c-20.9,3.3-39.4,11-54.5,26.6c-26.1,26.9-48,56.7-67.7,88.6c-22.5,36.5-39.3,75.4-52.3,116.1
		C3755.8,1841.2,3754.3,1849.8,3753,1855.1z M3012.2,1865.8c1.2,2.5,2.1,6.6,4.6,9.1c3.2,3.1,7.5,1.5,11.1-0.4
		c2.3-1.3,4.5-2.8,6.6-4.4c24.8-19.1,47.8-40.5,67.9-64.4c22.2-26.4,42.8-54.3,63.2-82.1c19.6-26.8,37-55.2,52.1-84.9
		c1.2-2.3,2.1-4.9,2.7-7.4c1.1-5.4-3.4-10.6-9-10.6c-2,0-4,0.2-5.9,0.7c-23.7,5.9-45,16.2-62.5,33.5c-22.8,22.4-43.7,46.5-60.3,74
		c-3.8,6.2-8,12.2-12.4,18.1c-23.5,31.8-40.4,67.1-53.9,104.1C3014.7,1855.3,3013.7,1859.9,3012.2,1865.8z M3604.7,1628.2
		c0-4.4,0.1-6.4,0-8.4c-0.7-10-6.7-14.7-16.1-11.8c-5,1.5-9.9,4-14.1,7.1c-24.1,18.3-42.7,41.5-58,67.4c-2.3,3.9-3.9,8.4-5.1,12.9
		c-1.2,4.5,2.6,9.8,7.1,10.2c3.2,0.3,6.6,0.1,9.8-0.6c34.6-7.1,57.7-28.1,71.4-60C3602.3,1638.9,3603.5,1632.3,3604.7,1628.2z"/>
	<path d="M5191.2,1840.3c-10-0.5-14.5,4.7-19.6,8.7c-14.1,11.2-27.9,22.8-42,33.8c-19.2,15-40.5,25.4-64.4,30.7
		c-8.7,1.9-17,2.1-25.7,0.2c-17.6-3.8-28-14.3-31.8-31.8c-0.1-0.7-0.2-1.3-0.3-2c-2.7-18.6-8.6-22-27.2-11.9
		c-11.7,6.4-23.6,12.3-35.6,18.2c-38.2,18.8-78.4,29.4-121.1,30.6c-14.2,0.4-27.9-1.2-41-6.9c-17.5-7.7-29.6-20.5-34.3-39.1
		c-2.4-9.6-3.3-19.6-4.5-29.5c-0.6-5.3-0.1-10.7-0.8-15.9c-0.7-6.1-6.5-9.3-11.7-6.4c-5.8,3.2-11.5,6.8-16.4,11.2
		c-18.9,17.1-39.2,32.2-61,45.1c-24.7,14.6-50.3,27.3-78.7,33.7c-21.9,5-43.8,4.7-65.6,1.7c-20.2-2.7-35.7-14-45.9-31.9
		c-1.6-2.9-2.7-6.1-4.3-9c-5.2-9.1-10.5-10.5-19.7-4.4c-6.1,4-11.8,8.7-17.1,13.7c-27.7,26.4-58.9,47.7-92.8,65.5
		c-18.6,9.8-38.2,15.6-58.8,18.2c-11.3,1.5-22.5,0.9-33.6-2.4c-20.9-6.1-34.5-19.5-41.1-40c-2-6.3-3-13-5-19.3
		c-2.1-6.7-7.6-9.3-14.2-6.3c-5.4,2.5-10.5,5.7-15.5,9c-17.3,11.2-36.3,16.4-56.8,16.8c-28.6,0.5-45.2-13.2-49.9-41.2
		c-3.3-19.6,0-38.8,7.3-56.8c11-27.1,22.3-54.3,35.6-80.3c21.8-42.7,45.3-84.5,68.1-126.7c3.5-6.5,6.6-13.1,10-19.6
		c2.5-4.7,4.9-9.5,8-13.8c11.6-15.9,27.6-18.4,43.4-6.9c2.7,2,5.1,4.3,7.5,6.6c17.1,16.8,18.5,29.5,5.9,49.7
		c-10.9,17.5-22.1,34.9-32.6,52.6c-27.9,47.1-52.1,96-74.2,146c-4.1,9.2-6.5,18.9-5.7,29.1c0.9,11,7.7,14.9,18.1,10.4
		c10-4.3,17.9-11.6,25-19.6c23.6-26.4,44.8-54.6,61.5-85.9c20.4-38.2,41.3-76.1,62-114.2c8-14.6,16-29.2,24.5-43.6
		c3.3-5.7,7.3-11.3,12-15.9c9.5-9.5,22.3-9.5,32.3-0.6c8.3,7.4,12.8,17.2,15.1,27.7c3.3,14.6,3,29.3-4.2,42.9
		c-6,11.1-12.4,22.1-19.5,32.5c-10.9,15.9-22.8,31.2-34,47c-23.3,32.8-42.6,67.6-54.5,106.2c-4.4,14.1-7.2,28.4-7.9,43.1
		c-0.2,4.6-0.1,9.4,0.6,13.9c2.1,14,10.8,21.8,24.6,20.4c8.4-0.8,17.2-3.1,24.8-6.8c14.3-7,28.5-14.7,41.8-23.4
		c36.5-24,67.5-54.1,96.4-86.6c6.6-7.5,13.2-15,19.9-22.4c11.3-12.4,20.7-25.9,28.6-40.8c24.9-47.1,51.1-93.5,80.2-138.3
		c12.1-18.7,28.3-31.8,49.3-38.7c6.7-2.2,14.3-2.9,21.5-2.6c8.1,0.4,13,6.5,13.6,14.7c0.9,10.6-3.9,19.5-8.9,28.1
		c-6.7,11.5-13.9,22.7-20.7,34.2c-6.4,10.9-13,21.8-18.5,33.1c-17.5,35.9-34.5,72.1-51.7,108.2c-7.5,15.8-10.8,32.8-14.3,49.8
		c-0.7,3.2-1,6.6-0.8,9.9c0.8,15.7,9.4,24.5,25,25.7c12.2,0.9,23.7-2,35.1-6.2c19.6-7.3,36.7-18.9,53.9-30.2
		c29.1-19.2,54.8-42.3,79.1-67.1c10.3-10.5,20.9-20.5,30.9-31.3c6.7-7.3,13.6-14.9,18.5-23.4c12.3-21.4,23.8-43.2,34.9-65.2
		c10-19.9,6.5-24.9-15.4-24.7c-6,0.1-12,0.3-18,0c-8.4-0.4-16.1-2.9-19.4-11.5s1.1-15.4,6.4-21.8c9-10.8,20.3-17.1,34.6-17.3
		c12-0.2,24-0.6,36-0.5c13.2,0.1,22.9-5.2,29.7-16.7c11.4-19.5,23.4-38.8,35-58.2c23.5-39.5,46.2-79.4,71.3-118
		c7.9-12.2,17.1-21.9,30.6-27.5c23.4-9.6,46.7-19.6,70.2-28.8c6-2.4,12.9-3.1,19.4-3.3c5.7-0.2,10.1,3.3,12,8.9
		c1.8,5.5,0.7,10.9-3.7,14.6c-4,3.4-8.5,6.6-13.3,8.6c-18.7,7.6-32.3,21.1-43.2,37.4c-21.8,32.7-43.6,65.4-64.8,98.5
		c-10.4,16.3-19.4,33.4-28.8,50.3c-3.2,5.8-5.9,11.9-8.1,18.2c-1.9,5.5,1.3,10.7,7.2,12.2c3.8,1,7.9,1.4,11.8,1.4
		c30-0.1,59.9-0.4,89.9-0.5c13.3,0,26.6,0.2,40,0.8c5.2,0.2,10.6,1.3,15.6,3c5.3,1.8,8.8,6.2,9.3,12c0.4,6-2.9,10.7-8,12.7
		c-6.1,2.4-12.7,4.3-19.2,4.6c-34.6,2-69.2,3.3-103.8,5.2c-19.3,1.1-38.5,2.7-57.8,4.3c-12,1-21.5,6.3-27.5,17.3
		c-4.1,7.6-9.2,14.8-12.8,22.6c-14.2,30.1-28.7,60.2-41.9,90.7c-9.9,22.7-15.6,46.8-18.4,71.3c-1,9.1-0.8,18.8,1.1,27.7
		c4.5,21,19.6,31.5,41,29.4c19.4-1.8,37.9-7.5,55.4-15.8c13.2-6.3,26-13.6,39.2-20c10.1-4.9,20.3-9.9,30.9-13.7
		c8.8-3.2,15-8.4,18.9-16.6c2.3-4.8,4.7-9.6,7-14.4c18.5-38.7,42.6-73.5,71-105.8c25.8-29.2,53.9-55.2,85.2-78.1
		c39.1-28.7,81.4-50.6,129.8-58.7c2.6-0.4,5.2-1.1,7.9-1.4c9.6-1.3,17.7-5.2,24-12.9c16.5-20.3,40.7-24,64.1-29
		c2.5-0.5,5.3,0.1,7.8,0.8c6.4,1.7,9.7,7.4,8,13.9c-1.2,4.5-3.3,8.7-4.5,13.2c-1.9,7,0,11.5,6.1,15.2c4.6,2.7,9.6,4.7,14.1,7.5
		c7.9,5,11,11.9,8.6,18.3c-2.7,7.2-8.6,9.9-15.8,9.9c-7.3,0-14.7,0-22-0.8c-15-1.6-25.6,4.2-32.7,17.6c-14,26.5-28.7,52.6-42.6,79.2
		c-19.5,37.2-37.5,75.1-53,114.1c-8.9,22.2-18.3,44.4-20.8,68.6c-0.3,2.6-0.9,5.3-1,7.9c-0.3,17,8.5,26,25.7,25.8
		c17.8-0.2,34.1-6.4,49.4-14.6c25.3-13.6,49-29.9,70.5-48.9c17.5-15.4,33.9-31.9,50.4-48.5c20.7-20.8,41.2-41.7,61-63.3
		c14.4-15.7,27.7-32.4,41-49.1c10.7-13.4,14.8-29.7,17.3-46.3c4-25.9,3.8-51.8-2.2-77.5c-0.3-1.3-0.7-2.6-0.8-3.9
		c-2.3-16.4,4.5-23.4,20.5-19c18.8,5.2,37.5,8.4,57.1,7.4c23.8-1.2,45.9-7.2,66.5-19.3c7.5-4.4,14.9-8.9,22.5-12.9
		c3.7-1.9,8.3-2,11,1.4c1.8,2.3,2.7,6.3,2.1,9.1c-1.3,5.8-3.5,11.5-6.2,16.8c-24,49.4-57.5,91.1-102,123.7
		c-14,10.2-28.7,19.3-43.1,28.9c-8.9,5.9-17.6,11.7-24.1,20.6c-20.8,28.6-45.1,54.2-69.7,79.5c-32,33-65.2,64.8-101.4,93.3
		c-30,23.7-62,43.9-97.9,57.3c-20.2,7.5-41.1,11-62.8,9.5c-34.1-2.4-55-23.4-57.1-57.5c-0.5-8,0.2-16,0.1-24
		C5192.4,1850.6,5191.7,1846.1,5191.2,1840.3z M5094.8,1839.6c-0.7,10.9,4.7,15.3,12.2,11.4c9.4-4.9,18.7-10.1,27.2-16.5
		c31-23.4,55.8-53.2,81.1-82.4c10.9-12.5,20.8-26.1,29.4-40.3c19.4-31.8,37.7-64.3,56.3-96.5c3.3-5.8,6.3-11.7,9.1-17.8
		c1.7-3.7,2.8-8.4-1-10.9c-2.9-1.9-7.3-1.8-11.1-2.2c-1.2-0.1-2.5,0.7-3.8,1.2c-15.4,6.6-30.2,13.9-43.4,24.4
		c-20.9,16.7-40,35.2-57.3,55.6c-16.8,19.9-31.4,41.3-45.7,63c-20.6,31.3-37.7,64.3-49.9,99.7
		C5096.4,1832.8,5095.4,1837.3,5094.8,1839.6z"/>
	<path d="M1596.6,1909.6c0-5.3,0.3-11.3-0.1-17.2c-0.3-4.1-5.6-6.8-9-4.7c-4.5,2.8-8.8,6-12.9,9.3
		c-21.2,17.3-42.3,34.6-66,48.4c-15.3,8.9-31.7,13.9-49.1,15.4c-28.7,2.6-47.1-14-48.2-42.9c-0.2-6.6-0.1-13.3-0.6-19.9
		c-0.3-4-5.3-7.2-9-5.5c-7.2,3.3-14.5,6.7-21.1,11.2c-25,16.8-51.1,31.4-79,42.7c-28.1,11.4-57.7,16.3-87.9,15.8
		c-12.7-0.2-25.1-3.7-36.7-8.9c-14.6-6.5-25.1-17.6-31.4-32.2c-7-16.2-9.5-33.2-6.4-50.8c3.2-17.8,7.6-35.2,14.9-51.7
		c10.5-23.7,20.7-47.7,32.8-70.6c22-41.9,44.7-83.4,68.2-124.4c38.3-67.1,77.4-133.7,116.4-200.4c34.2-58.7,69.1-117,102.9-176
		c25.2-44,52.4-86.6,80.4-128.8c36.1-54.3,80.1-101.3,132.7-140c18.2-13.4,36.8-26.4,55.3-39.4c18.7-13.1,39.4-22.4,60.1-31.6
		c9-4,18.8-7.1,28.6-8.5c24.3-3.5,44,13.2,43.5,37.6c-0.2,13.1-3.1,26.4-6.5,39.2c-8.5,32.4-24.1,62-39.1,91.7
		c-31,61.5-68.5,119-109.9,173.7c-30.9,40.8-63.7,80.5-100.6,116.3c-8.6,8.4-17,17-25.3,25.6c-38.7,40.6-81.1,76.9-125.7,110.9
		c-28.7,21.9-58.7,41.6-89.4,60.3c-11.7,7.1-21.3,15.7-27.9,27.8c-26.1,47.2-55.1,92.9-77.3,142.1c-16.4,36.4-31.6,73.4-43.3,111.7
		c-4.1,13.4-7,27.1-6.3,41.3c0.2,4,0.3,8,1.2,11.9c3.7,17.2,14.6,26.3,32.1,27.3c16.3,0.9,32-2.8,46.7-9.1
		c25.8-11,50.6-24.2,72.6-41.6c21.4-16.9,42.1-34.8,62.7-52.7c6.4-5.6,11.6-12.7,17.1-19.3c2.1-2.5,3.9-5.4,5.7-8.2
		c33.4-53.1,75.9-97.9,126.4-134.7c30.1-21.9,61.6-42.3,98.3-52.2c10.9-2.9,22-5.4,33.1-7.2c14.3-2.3,26.7-7.2,36.5-18.6
		c14.4-16.8,35-20.9,55.2-25.2c2.6-0.5,5.3-0.4,8-0.2c9.8,0.7,14.5,7.1,11.7,16.3c-1.3,4.5-3.6,8.6-4.9,13.1
		c-1.6,5.6,0.7,10.8,5.8,13.5c3.5,1.8,7.5,2.8,11,4.6c3.5,1.8,7.2,3.6,10,6.3c7.6,7.4,5.5,19.4-4.4,22.7c-5.4,1.8-12,2.7-17.5,1.3
		c-24.1-5.9-38.5,3.9-49.9,25.1c-28.7,53.4-56.7,107.2-81.9,162.3c-10.8,23.5-20.3,47.9-26.1,73.3c-2.5,11.1-4.9,22.2-2.8,33.6
		c2.1,11.5,8.1,17.9,19.7,19.1c5.8,0.6,12.2,0.6,17.8-1.1c11.5-3.3,23.2-6.7,33.7-12.3c29-15.3,55.7-34.1,79.7-56.4
		c22.4-20.9,44.4-42.2,66.2-63.7c10.9-10.8,20.9-22.4,31-33.9c13.6-15.5,26.9-31.3,40.5-46.9c3.5-4,7.4-7.8,11.7-10.8
		c5.8-4,14.5-3.2,18.5,1.1c4.5,4.9,5.8,11,2.6,16.7c-4.1,7.5-8.7,15.1-14.4,21.5c-29.6,33.4-57.6,68.2-90.2,98.9
		c-39.9,37.4-80.5,73.8-128.4,101.2c-24,13.7-48.8,24.4-76.1,28.9c-15.3,2.5-30.5,2-45.6-2.2c-15.9-4.4-27-13.8-33.7-28.8
		C1597.6,1938.1,1594.8,1924.6,1596.6,1909.6z M1416.1,1485.1c7-3.3,10.8-4.6,13.9-6.8c29.7-20.4,57.8-42.9,84.1-67.5
		c36.5-34.1,72.4-68.9,104.2-107.6c16.1-19.5,32.9-38.6,47.5-59.2c24.2-34.2,47.5-69.2,67-106.5c18.6-35.5,36-71.4,44.9-110.7
		c2.8-12.2,4.2-24.9,4.9-37.5c0.4-7.1,0-15.4-7.8-19.3c-8.8-4.4-15.6,1.2-21.3,6.7c-10.1,9.7-20,19.6-28.8,30.4
		c-18,22.2-35.6,44.9-52.8,67.7c-15.2,20.2-30.3,40.5-44.3,61.5c-24.7,37.2-48.6,74.8-72.6,112.5c-24,37.6-47.9,75.3-71.3,113.3
		c-19.6,31.7-38.4,63.9-57.5,95.9c-3.1,5.1-6.1,10.3-8.7,15.7C1416.3,1476.1,1416.7,1478.8,1416.1,1485.1z M1715.3,1639.6
		c0.1-7.4-5.2-11.4-11.2-9.7c-14.2,4-27.1,10.8-39.4,19c-20.7,13.7-38,31.5-54.8,49.3c-39.1,41.4-69.9,88.8-93.9,140.5
		c-7,15-14.2,30.1-17.4,46.6c-1.1,5.4-2.5,10.7,3.1,14.3c4.6,3,9,0.9,13.1-1.5c3.4-2,6.9-4.2,9.9-6.7c11.8-9.8,23.4-19.7,35-29.6
		c31.7-26.8,57.3-59.1,81.8-92.3c27.8-37.7,48.7-79.3,70.5-120.5C1713.8,1645.5,1714.7,1641.6,1715.3,1639.6z"/>
	<path d="M4707,1420.2c-20.7-0.2-31.1-10.5-31.6-29.7c-0.6-23.8,13.6-51.1,44.9-61.9c4.9-1.7,10.5-2.2,15.7-2
		c13.5,0.4,24,9.5,26.7,22.7c0.9,4.5,1,9.3,0.7,13.9c-1.8,22.7-26.1,50.9-48.2,56C4711.9,1419.9,4708.6,1420,4707,1420.2z"/>
</g>
</svg>
